<svg fill="#146FF8" xmlns="http://www.w3.org/2000/svg" viewBox="0 0 1024 1024" class="icon" data-testid="base-icon-svg" ><path xmlns="http://www.w3.org/2000/svg" d="M768.435 65.442c-20.383-19.598-52.797-18.961-72.392 1.423-19.599 20.384-18.964 52.796 1.423 72.394l93.993 90.373h-535.46c-141.388 0-256 114.629-256 256.01v26.259c0 28.275 22.923 51.249 51.2 51.249s51.2-22.922 51.2-51.199v-26.309c0-84.834 68.772-153.61 153.6-153.61h535.46l-93.993 90.373c-20.388 19.598-21.023 52.01-1.423 72.394 19.594 20.382 52.009 21.022 72.392 1.423l185.641-178.481a51.203 51.203 0 0 0 0-73.818L768.435 65.442zm-512.87 893.017c20.384 19.599 52.796 18.959 72.394-1.423s18.961-52.797-1.423-72.392l-93.997-90.373H768c141.389 0 256-114.632 256-256.01v-26.26c0-28.277-22.922-51.25-51.2-51.25s-51.2 22.923-51.2 51.2v26.31c0 84.833-68.772 153.61-153.6 153.61H232.539l93.997-90.373c20.384-19.599 21.021-52.009 1.423-72.397-19.598-20.382-52.009-21.019-72.394-1.423L69.927 706.161a51.197 51.197 0 0 0 0 73.815l185.638 178.483z"></path></svg>