<svg fill="currentColor" xmlns="http://www.w3.org/2000/svg" viewBox="0 0 1075 1024" class="icon" data-testid="base-icon-svg" style="display: inline-flex;"><path xmlns="http://www.w3.org/2000/svg" d="M115.034 513.567c-26.854 33.009-23.765 82.463 7.01 111.795l300.503 286.239C477.087 978.581 562.637 1024 654.904 1024h59.412c164.096 0 297.057-134.804 297.057-301.179v-361.41c0-33.25-26.557-60.235-59.412-60.235-32.794 0-59.412 26.985-59.412 60.235v30.478c0 16.435-13.297 29.757-29.706 29.757-16.404 0-29.706-13.323-29.706-29.757v-90.713c0-33.25-26.552-60.235-59.407-60.235-32.799 0-59.412 26.985-59.412 60.235v90.713c0 16.435-13.302 29.757-29.706 29.757s-29.706-13.323-29.706-29.757V240.941c0-33.25-26.557-60.235-59.412-60.235-32.794 0-59.407 26.985-59.407 60.235v150.948c0 16.435-13.302 29.757-29.708 29.757s-29.706-13.323-29.706-29.757V60.235C476.673 26.985 450.116 0 417.262 0c-32.795 0-59.411 26.985-59.411 60.235v544.826L218.412 500.555c-32.616-24.335-77.532-18.733-103.375 13.011z"></path></svg>