<svg fill="currentColor" xmlns="http://www.w3.org/2000/svg" viewBox="0 0 1075 1024" class="icon" data-testid="base-icon-svg" style="display: inline-flex;"><path xmlns="http://www.w3.org/2000/svg" d="M529.034 824.719h132.332l-238.194-625.48H282.021L42.063 824.719h128.801l52.05-142.92h254.073l52.048 142.92zM349.949 334.216l86.455 236.429H263.493l86.455-236.429zm519.642 536.916a52.377 52.377 0 0 1-37.586-15.892L685.716 704.589c-20.152-20.756-19.666-53.919 1.091-74.071s53.919-19.666 74.071 1.091l55.214 56.858V333.301l-55.204 56.88c-20.152 20.76-53.315 21.255-74.076 1.106-20.756-20.149-21.253-53.312-1.106-74.072l144.097-148.464c9.861-10.163 23.419-15.899 37.581-15.9s27.725 5.731 37.591 15.891l146.284 150.651c20.152 20.755 19.666 53.919-1.091 74.073-20.751 20.154-53.919 19.666-74.071-1.089l-55.24-56.888v355.22l55.235-56.909c20.147-20.756 53.309-21.253 74.071-1.106 20.762 20.152 21.253 53.315 1.106 74.071L907.172 855.23a52.368 52.368 0 0 1-37.581 15.903z" style=""></path></svg>