<svg fill="currentColor" xmlns="http://www.w3.org/2000/svg" viewBox="0 0 1075 1024" class="icon" data-testid="base-icon-svg" style="display: inline-flex;"><path xmlns="http://www.w3.org/2000/svg" d="M598.979 25.04a52.797 52.797 0 0 0-89.821 0l-265.66 429.862a374.696 374.696 0 0 0-34.549 72.202C124.352 766.659 295.974 1024 548.864 1024h10.414c252.887 0 424.509-257.341 339.912-496.896a374.908 374.908 0 0 0-34.55-72.202L598.979 25.04zm-265.66 485.372L554.071 153.22 774.82 510.412a269.167 269.167 0 0 1 24.806 51.856 283.232 283.232 0 0 1 6.615 21.366c-53.402 5.596-110.316 30.556-179.666 99.907-89.533 89.533-218.868 98.166-319.196 58.271-19.039-55.096-20.709-117.693 1.133-179.543a269.108 269.108 0 0 1 24.806-51.856z"></path></svg>