<svg fill="currentColor" xmlns="http://www.w3.org/2000/svg" viewBox="0 0 1075 1024" class="icon" data-testid="base-icon-svg" style="display: inline-flex;"><path xmlns="http://www.w3.org/2000/svg" d="M529.976 202.387c0-19 15.401-34.402 34.401-34.402a344.029 344.029 0 0 1 243.262 100.762 343.984 343.984 0 0 1 74.573 111.609 344.005 344.005 0 0 1 0 263.305 343.961 343.961 0 0 1-74.573 111.606 343.943 343.943 0 0 1-111.611 74.578 343.99 343.99 0 0 1-131.651 26.189c-19 0-34.401-15.406-34.401-34.406v-619.24zM1066.061 512c0-282.77-229.228-512-512-512C271.293 0 42.063 229.23 42.063 512c0 282.767 229.23 512 511.998 512 282.772 0 512-229.233 512-512zm-106.66 0c0 223.862-181.473 405.34-405.34 405.34-223.861 0-405.338-181.478-405.338-405.34 0-223.863 181.477-405.34 405.338-405.34 223.867 0 405.34 181.477 405.34 405.34z"></path></svg>