<svg fill="currentColor" xmlns="http://www.w3.org/2000/svg" viewBox="0 0 1075 1024" class="icon" data-testid="base-icon-svg" style="display: inline-flex;"><path xmlns="http://www.w3.org/2000/svg" d="M125.85 134.957C125.85 60.422 186.272 0 260.807 0h586.512c74.532 0 134.958 60.422 134.958 134.957v754.085c0 74.537-60.426 134.958-134.958 134.958H260.807c-74.535 0-134.957-60.421-134.957-134.958V134.957zm134.957-32.618c-18.015 0-32.618 14.604-32.618 32.618v754.085c0 18.017 14.603 32.62 32.618 32.62h586.512c18.012 0 32.62-14.602 32.62-32.62V134.957c0-18.014-14.607-32.618-32.62-32.618H260.807zm32.618 200.193c0-28.26 22.909-51.169 51.17-51.169h418.936c28.262 0 51.169 22.909 51.169 51.169s-22.907 51.17-51.169 51.17H344.595c-28.26 0-51.17-22.909-51.17-51.17zm0 209.468c0-28.26 22.909-51.17 51.17-51.17h418.936c28.262 0 51.169 22.909 51.169 51.17s-22.907 51.169-51.169 51.169H344.595c-28.26 0-51.17-22.907-51.17-51.169zm0 209.469c0-28.262 22.909-51.169 51.17-51.169h214.126c28.257 0 51.169 22.907 51.169 51.169 0 28.257-22.912 51.169-51.169 51.169H344.595c-28.26 0-51.17-22.912-51.17-51.169z"></path></svg>