<svg fill="currentColor" xmlns="http://www.w3.org/2000/svg" viewBox="0 0 1075 1024" class="icon" data-testid="base-icon-svg" style="display: inline-flex;"><path xmlns="http://www.w3.org/2000/svg" d="M554.061 677.335c89.702 0 162.417-72.714 162.417-162.417 0-89.698-72.714-162.414-162.417-162.414-89.697 0-162.413 72.716-162.413 162.414 0 89.702 72.716 162.417 162.413 162.417zM604.78 50.708C604.78 22.703 582.073 0 554.072 0c-28.006 0-50.709 22.703-50.709 50.708v92.886c-165.419 22.369-296.572 152.681-320.217 317.692H92.771c-28.005 0-50.708 22.703-50.708 50.708 0 28.007 22.702 50.709 50.708 50.709h89.587C203.715 730.46 335.995 863.58 503.35 886.22v87.071c0 28.006 22.7 50.708 50.706 50.708s50.708-22.702 50.708-50.708v-87.076c167.347-22.641 299.622-155.756 320.978-323.512h89.61c28.006 0 50.708-22.702 50.708-50.705 0-28.005-22.702-50.707-50.708-50.707h-90.394c-23.644-165-154.778-295.307-320.179-317.691V50.709zm-324.027 464.2c0-150.939 122.359-273.298 273.297-273.298s273.295 122.36 273.295 273.298S704.987 788.203 554.05 788.203 280.753 665.845 280.753 514.908z"></path></svg>