<svg fill="white" xmlns="http://www.w3.org/2000/svg" viewBox="0 0 1075 1024" class="icon" data-testid="base-icon-svg" style="display: inline-flex;"><path xmlns="http://www.w3.org/2000/svg" d="M64.557 892.892c-29.992 29.993-29.992 78.623 0 108.616 29.992 29.988 78.62 29.988 108.612 0l380.893-380.897 380.897 380.897c29.993 29.988 78.618 29.988 108.611 0 29.993-29.993 29.993-78.623 0-108.616L662.678 512l380.892-380.894c29.993-29.992 29.993-78.619 0-108.612s-78.618-29.992-108.611 0L554.062 403.388 173.169 22.494c-29.992-29.992-78.619-29.992-108.612 0s-29.992 78.619 0 108.612L445.451 512 64.557 892.892z"></path></svg>