<svg fill="currentColor" xmlns="http://www.w3.org/2000/svg" viewBox="0 0 1075 1024" class="icon" data-testid="base-icon-svg" style="display: inline-flex;"><path xmlns="http://www.w3.org/2000/svg" d="M605.773 822.943c-20.265-20.265-20.265-53.12 0-73.385l185.672-185.672H93.956c-28.66 0-51.893-23.235-51.893-51.893 0-28.66 23.233-51.893 51.893-51.893h697.489L605.773 274.431c-20.265-20.265-20.265-53.123 0-73.388s53.125-20.265 73.39 0l274.253 274.256c20.27 20.265 20.27 53.121 0 73.385L679.163 822.942c-20.265 20.265-53.125 20.265-73.39 0zM1014.17 69.7c28.662 0 51.891 23.233 51.891 51.893v780.823c0 28.657-23.229 51.891-51.891 51.891s-51.891-23.235-51.891-51.891V121.593c0-28.66 23.229-51.893 51.891-51.893z" style=""></path></svg>