<svg fill="currentColor" xmlns="http://www.w3.org/2000/svg" viewBox="0 0 1075 1024" class="icon" data-testid="base-icon-svg" style="display: inline-flex;"><path xmlns="http://www.w3.org/2000/svg" d="M42.062 52.82C42.062 23.648 65.71 0 94.882 0h918.361c29.174 0 52.818 23.648 52.818 52.82s-23.644 52.82-52.818 52.82H94.882c-29.172 0-52.82-23.648-52.82-52.82zm0 306.12c0-29.172 23.648-52.82 52.82-52.82h612.241c29.169 0 52.818 23.648 52.818 52.82s-23.649 52.82-52.818 52.82H94.882c-29.172 0-52.82-23.648-52.82-52.82zm0 306.122c0-29.174 23.648-52.823 52.82-52.823h918.361c29.174 0 52.818 23.649 52.818 52.823 0 29.169-23.644 52.818-52.818 52.818H94.882c-29.172 0-52.82-23.649-52.82-52.818zm0 306.12c0-29.174 23.648-52.823 52.82-52.823h612.241c29.169 0 52.818 23.649 52.818 52.823 0 29.169-23.649 52.818-52.818 52.818H94.882c-29.172 0-52.82-23.649-52.82-52.818z" style=""></path></svg>