<svg fill="currentColor" xmlns="http://www.w3.org/2000/svg" viewBox="0 0 1075 1024" class="icon" data-testid="base-icon-svg" style="display: inline-flex;"><path xmlns="http://www.w3.org/2000/svg" d="M93.304 187.725c28.3 0 51.242 22.942 51.242 51.242V785.04c0 28.298-22.942 51.241-51.242 51.241s-51.242-22.943-51.242-51.241V238.967c0-28.3 22.942-51.242 51.242-51.242zM905.38 510.924a51.226 51.226 0 0 1-15.544 36.767L742.467 690.79c-20.306 19.717-52.746 19.241-72.458-1.065-19.717-20.301-19.241-52.741 1.065-72.458l55.649-54.036H379.238l55.667 54.031c20.308 19.707 20.792 52.147 1.082 72.458-19.71 20.306-52.151 20.792-72.459 1.08L218.297 549.846a51.24 51.24 0 0 1-.009-73.535l147.37-143.1c20.303-19.715 52.744-19.238 72.459 1.065s19.238 52.744-1.065 72.459l-55.623 54.011h347.433l-55.644-54.004c-20.306-19.71-20.792-52.151-1.08-72.459s52.152-20.792 72.458-1.082l145.229 140.957a51.228 51.228 0 0 1 15.555 36.764zm160.681-271.957c0-28.3-22.938-51.242-51.241-51.242-28.298 0-51.241 22.942-51.241 51.242V785.04c0 28.298 22.943 51.241 51.241 51.241 28.303 0 51.241-22.943 51.241-51.241V238.967z" style=""></path></svg>