<svg fill="#146FF8" xmlns="http://www.w3.org/2000/svg" viewBox="0 0 1024 1024" class="icon" data-testid="base-icon-svg" style="display: inline-flex;"><path xmlns="http://www.w3.org/2000/svg" d="M993.167 103.192c19.994-19.995 19.994-52.413 0-72.408s-52.413-19.995-72.407 0L773.714 177.83c-75.407-47.375-208.338-80.229-347.192-53.821C272.253 153.348 111.929 255.316 9.448 484.494a51.197 51.197 0 0 0 4.188 49.374c21.122 31.565 57.575 80.538 99.542 126.73 27.144 29.88 58.931 61.251 92.117 85.647L30.834 920.709c-19.995 19.994-19.995 52.413 0 72.407s52.413 19.994 72.408 0l889.926-889.925zM445.653 224.605c102.458-19.485 196.963 1.448 252.797 28.489l-92.698 92.699c-68.065-31.082-151.168-17.592-205.824 39.517-52.718 55.084-63.734 134.826-33.904 200.208l-87.174 87.173c-26.827-17.224-58.301-46.188-89.88-80.947-28.74-31.636-54.785-64.927-73.879-91.374 88.851-180.491 215.482-253.879 330.561-275.765zm473.239 92.206c-19.476-20.501-51.881-21.332-72.381-1.856-20.506 19.475-21.335 51.883-1.859 72.383 26.639 28.043 45.384 59.887 57.539 85.33a359.55 359.55 0 0 1 9.708 22.175C810.83 670.969 633.632 784.275 432.806 745.563c-27.766-5.356-54.614 12.815-59.966 40.581s12.817 54.615 40.583 59.965c265.47 51.174 486.654-109.087 599.653-322.724a51.2 51.2 0 0 0 3.978-37.969l-49.239 14.031c49.239-14.031 49.244-14.018 49.239-14.031l-.015-.052-.056-.202-.108-.373-.328-1.097c-.266-.884-.635-2.071-1.106-3.536a337.627 337.627 0 0 0-4.116-11.96c-3.625-9.942-9.103-23.693-16.737-39.668-15.135-31.685-39.414-73.527-75.694-111.718z"></path></svg>