<svg fill="currentColor" xmlns="http://www.w3.org/2000/svg" viewBox="0 0 1075 1024" class="icon" data-testid="base-icon-svg" style="display: inline-flex;"><path xmlns="http://www.w3.org/2000/svg" d="M904.228 161.83c-76.805-76.805-201.329-76.805-278.134 0L520.54 267.381c-20.349 20.351-53.346 20.351-73.697 0s-20.351-53.348 0-73.699L552.392 88.131c117.509-117.508 308.029-117.508 425.539 0s117.509 308.027 0 425.533L872.377 619.218c-20.352 20.352-53.345 20.352-73.697 0s-20.352-53.35 0-73.702l105.549-105.548c76.805-76.805 76.805-201.332 0-278.137zm-89.416 89.414c20.352 20.351 20.352 53.347.005 73.699L367.002 772.757c-20.351 20.352-53.348 20.352-73.699 0s-20.351-53.345 0-73.697l447.812-447.815c20.352-20.351 53.35-20.351 73.697 0zM309.444 404.783c20.351 20.351 20.351 53.348 0 73.699L203.893 584.033c-76.805 76.805-76.805 201.329 0 278.134 76.806 76.81 201.332 76.81 278.137 0l105.552-105.549c20.352-20.352 53.345-20.352 73.697 0s20.352 53.35 0 73.697L555.73 935.869c-117.509 117.509-308.028 117.509-425.536 0s-117.509-308.029 0-425.536l105.551-105.551c20.351-20.351 53.347-20.351 73.699 0z"></path></svg>