<svg fill="currentColor" xmlns="http://www.w3.org/2000/svg" viewBox="0 0 1075 1024" class="icon" data-testid="base-icon-svg" style="display: inline-flex;"><path xmlns="http://www.w3.org/2000/svg" d="M794.332 14.996c-19.994 19.995-19.994 52.413 0 72.408l55.956 55.956-55.956 55.956c-19.994 19.995-19.994 52.413 0 72.408s52.413 19.995 72.407 0l55.956-55.956 55.956 55.956c19.994 19.995 52.413 19.995 72.407 0s19.994-52.413 0-72.408l-55.956-55.956 55.956-55.956c19.994-19.995 19.994-52.413 0-72.408s-52.413-19.995-72.407 0l-55.956 55.956-55.956-55.956c-19.994-19.995-52.413-19.995-72.407 0zm-649.87 179.565v487.393l147.216-117.775c17.411-13.926 41.833-14.986 60.385-2.616l107.089 71.393 201.164-160.935c21.77-17.415 53.473-14.213 71.322 7.203l139.863 167.842V419.841c0-28.277 22.922-51.2 51.2-51.2s51.2 22.923 51.2 51.2V926.72c0 53.729-43.551 97.28-97.28 97.28H139.343c-53.726 0-97.28-43.551-97.28-97.28V189.441c0-53.726 43.554-97.28 97.28-97.28h506.878c28.278 0 51.2 22.923 51.2 51.2s-22.922 51.2-51.2 51.2H144.463zm0 618.526V921.6H871.5V807.02L685.096 583.332l-191.21 152.97c-17.411 13.926-41.833 14.986-60.385 2.621L326.412 667.53l-181.95 145.556z"></path></svg>