<svg fill="currentColor" xmlns="http://www.w3.org/2000/svg" viewBox="0 0 1075 1024" class="icon" data-testid="base-icon-svg" style="display: inline-flex;"><path xmlns="http://www.w3.org/2000/svg" d="M260.826 0c28.277 0 51.2 22.923 51.2 51.2v116.364h484.072V51.2c0-28.277 22.922-51.2 51.2-51.2s51.2 22.923 51.2 51.2v116.364h116.362c28.278 0 51.2 22.923 51.2 51.2s-22.922 51.2-51.2 51.2H898.498v484.074h116.362c28.278 0 51.2 22.922 51.2 51.2s-22.922 51.2-51.2 51.2H898.498V972.8c0 28.278-22.922 51.2-51.2 51.2s-51.2-22.922-51.2-51.2V856.438H312.026V972.8c0 28.278-22.923 51.2-51.2 51.2s-51.2-22.922-51.2-51.2V856.438H93.262c-28.277 0-51.2-22.922-51.2-51.2s22.923-51.2 51.2-51.2h116.364V269.964H93.262c-28.277 0-51.2-22.923-51.2-51.2s22.923-51.2 51.2-51.2h116.364V51.2c0-28.277 22.923-51.2 51.2-51.2zm51.2 269.964v484.074h484.072V269.964H312.026z"></path></svg>