<svg fill="currentColor" xmlns="http://www.w3.org/2000/svg" viewBox="0 0 1075 1024" class="icon" data-testid="base-icon-svg" style="display: inline-flex;"><path xmlns="http://www.w3.org/2000/svg" d="M596.429 23.621a49.799 49.799 0 0 0-84.729 0L244.309 456.283a373.714 373.714 0 0 0-34.466 72.034C125.414 767.39 296.731 1024 548.824 1024h10.486c252.093 0 423.409-256.609 338.98-495.683a373.75 373.75 0 0 0-34.468-72.034L596.43 23.621zm-267.39 485.027 225.027-364.111.538.875 4.419 778.983h-10.199c-179.175 0-308.014-184.648-245.059-362.911a274.289 274.289 0 0 1 25.275-52.836z"></path></svg>