<svg fill="currentColor" xmlns="http://www.w3.org/2000/svg" viewBox="0 0 1075 1024" class="icon" data-testid="base-icon-svg" style="display: inline-flex;"><path xmlns="http://www.w3.org/2000/svg" d="M461.977 103.143c-174.948 0-316.771 141.823-316.771 316.771s141.823 316.772 316.771 316.772c174.946 0 316.77-141.824 316.77-316.772s-141.824-316.771-316.77-316.771zM42.062 419.914C42.062 188.002 230.064 0 461.976 0s419.913 188.002 419.913 419.914c0 97.37-33.137 187-88.755 258.225l257.823 257.823c20.142 20.142 20.142 52.792 0 72.934-20.137 20.137-52.792 20.137-72.934 0L720.2 751.073c-71.224 55.613-160.855 88.755-258.223 88.755-231.912 0-419.914-188.001-419.914-419.914zm419.915-189.7c28.483 0 51.57 23.09 51.57 51.572v86.557h86.559c28.483 0 51.574 23.09 51.574 51.572s-23.091 51.572-51.574 51.572h-86.559v86.558c0 28.483-23.087 51.569-51.57 51.569s-51.571-23.086-51.571-51.569v-86.558h-86.557c-28.482 0-51.572-23.09-51.572-51.572s23.09-51.572 51.572-51.572h86.557v-86.557c0-28.482 23.089-51.572 51.571-51.572z" style=""></path></svg>