<svg fill="currentColor" xmlns="http://www.w3.org/2000/svg" viewBox="0 0 1075 1024" class="icon" data-testid="base-icon-svg" style="display: inline-flex;"><path xmlns="http://www.w3.org/2000/svg" d="M261.481 188.059h585.162c17.321 0 31.365 14.043 31.365 31.365v198.554H230.116V219.424c0-17.322 14.043-31.365 31.365-31.365zm720.986 229.919V219.424c0-75.014-60.81-135.824-135.823-135.824H261.482c-75.014 0-135.824 60.811-135.824 135.824v198.554H94.293c-28.846 0-52.229 23.384-52.229 52.23s23.384 52.232 52.229 52.232h919.54c28.846 0 52.229-23.386 52.229-52.232s-23.383-52.23-52.229-52.23h-31.365zM177.887 585.17c28.846 0 52.23 23.383 52.23 52.229v167.188c0 17.321 14.043 31.365 31.365 31.365h585.162c17.321 0 31.365-14.044 31.365-31.365V637.399c0-28.846 23.383-52.229 52.229-52.229s52.229 23.383 52.229 52.229v167.188c0 75.013-60.81 135.823-135.823 135.823H261.482c-75.014 0-135.824-60.81-135.824-135.823V637.399c0-28.846 23.384-52.229 52.23-52.229z"></path></svg>