<svg fill="currentColor" xmlns="http://www.w3.org/2000/svg" viewBox="0 0 1075 1024" class="icon" data-testid="base-icon-svg" style="display: inline-flex;"><path xmlns="http://www.w3.org/2000/svg" d="M42.062 162.423v386.456c0 89.103 72.232 161.336 161.336 161.336h153.537v151.332c0 89.103 72.232 161.336 161.337 161.336h386.452c89.103 0 161.336-72.233 161.336-161.336V475.089c0-89.103-72.233-161.336-161.336-161.336H751.191V162.422c0-89.103-72.233-161.336-161.336-161.336H203.398c-89.103 0-161.336 72.232-161.336 161.336zm601.573 0v151.331H518.272c-89.104 0-161.337 72.232-161.337 161.336v127.57H203.398c-29.701 0-53.778-24.079-53.778-53.78V162.424c0-29.701 24.077-53.778 53.778-53.778h386.457c29.701 0 53.78 24.077 53.78 53.778zm-53.78 547.793c89.103 0 161.336-72.233 161.336-161.336V421.312h153.533c29.701 0 53.78 24.077 53.78 53.778v386.458c0 29.701-24.079 53.775-53.78 53.775H518.272c-29.702 0-53.78-24.074-53.78-53.775V710.216h125.363z"></path></svg>