<svg fill="currentColor" xmlns="http://www.w3.org/2000/svg" viewBox="0 0 1075 1024" class="icon" data-testid="base-icon-svg" style="display: inline-flex;"><path xmlns="http://www.w3.org/2000/svg" d="M1066.061 511.982c0 196.155-159.012 355.167-355.169 355.167-181.125 0-330.586-135.583-352.422-310.794h241.098c28.969 0 52.454-23.485 52.454-52.454s-23.485-52.454-52.454-52.454H360.863c28.731-167.318 174.515-294.634 350.029-294.634 196.157 0 355.169 159.015 355.169 355.169zM540.708 289.459c-28.969 0-52.454 23.485-52.454 52.454s23.484 52.454 52.454 52.454h88.289c47.672 0 94.694 44.184 94.694 109.533 0 65.352-47.022 109.532-94.694 109.532h-88.289c-28.969 0-52.454 23.485-52.454 52.454s23.484 52.454 52.454 52.454h88.289c114.867 0 199.603-100.864 199.603-214.441s-84.736-214.441-199.603-214.441h-88.289zM360.863 451.446a357.504 357.504 0 0 0-5.138 60.535c0 15.025.933 29.837 2.745 44.373H235.804c-28.969 0-52.454-23.485-52.454-52.454s23.485-52.454 52.454-52.454h125.06zm-125.06-161.987c-113.506 0-193.74 102.974-193.74 214.441s80.234 214.441 193.74 214.441h84.771c28.969 0 52.454-23.485 52.454-52.454s-23.485-52.454-52.454-52.454h-84.771c-42.554 0-88.832-42.071-88.832-109.532 0-67.459 46.278-109.533 88.832-109.533h84.771c28.969 0 52.454-23.484 52.454-52.454s-23.485-52.454-52.454-52.454h-84.771z" style=""></path></svg>