<svg fill="currentColor" xmlns="http://www.w3.org/2000/svg" viewBox="0 0 1075 1024" class="icon" data-testid="base-icon-svg" style="display: inline-flex;"><path xmlns="http://www.w3.org/2000/svg" d="M612.562 2.758c20.966 7.132 35.072 26.823 35.072 48.972v324.857h283.013a51.732 51.732 0 0 1 46.408 28.877 51.737 51.737 0 0 1-5.407 54.389l-418.427 543.953c-13.507 17.556-36.69 24.566-57.658 17.434s-35.071-26.824-35.071-48.973V647.413H177.478a51.729 51.729 0 0 1-41.001-83.267L554.905 20.191C568.406 2.635 591.59-4.375 612.561 2.757zM282.529 543.959H512.22c28.57 0 51.727 23.158 51.727 51.727v224.497l261.647-340.141H595.906c-28.57 0-51.727-23.159-51.727-51.727V203.816l-261.65 340.143z"></path></svg>