<svg fill="#146FF8" xmlns="http://www.w3.org/2000/svg" viewBox="0 0 1075 1024" class="icon" data-testid="base-icon-svg" style="display: inline-flex;"><path xmlns="http://www.w3.org/2000/svg" d="M179.2 51.15H896c84.833 0 153.6 68.769 153.6 153.6v309.851c0 80.886-47.606 154.194-121.503 187.095L742.4 784.374v212.982c0 22.676-29.317 34.913-48.297 20.152l-118.42-92.083c-21.914-17.044-54.252-17.044-76.163 0l-118.422 92.083c-18.978 14.761-48.297 2.524-48.297-20.152V784.374l-185.699-82.678C73.209 668.795 25.601 595.487 25.601 514.601V204.75c0-84.831 68.769-153.6 153.6-153.6zm563.2 621.132 144.051-64.133c36.946-16.451 60.749-53.105 60.749-93.548V204.75c0-28.277-22.922-51.2-51.2-51.2H179.2c-28.277 0-51.2 22.923-51.2 51.2v309.851c0 40.443 23.804 77.097 60.75 93.548l144.05 64.133V511.95c0-56.554 45.846-102.4 102.4-102.4H640c56.556 0 102.4 45.846 102.4 102.4v160.332z"></path></svg>