<svg fill="currentColor" xmlns="http://www.w3.org/2000/svg" viewBox="0 0 1075 1024" class="icon" data-testid="base-icon-svg" style="display: inline-flex;"><path xmlns="http://www.w3.org/2000/svg" d="M471.144 294.604a50.9 50.9 0 0 0-76.781 53.647l120.765 573.641c4.736 22.487 23.956 39.014 46.899 40.325 22.948 1.316 43.924-12.913 51.195-34.719l78.971-236.918h235.039c22.707 0 42.665-15.043 48.927-36.869s-2.693-45.158-21.949-57.19L471.145 294.604zM42.075 163.495C42.075 107.275 87.65 61.7 143.87 61.7h820.41c56.218 0 101.796 45.575 101.796 101.795v153.551c0 56.22-45.578 101.795-101.796 101.795H772.772c-28.109 0-50.898-22.788-50.898-50.898s22.789-50.897 50.898-50.897H964.28V163.495H143.87v153.551h149.732c28.11 0 50.898 22.788 50.898 50.897s-22.788 50.898-50.898 50.898H143.87c-56.22 0-101.795-45.575-101.795-101.795V163.495z"></path></svg>