<svg fill="currentColor" xmlns="http://www.w3.org/2000/svg" viewBox="0 0 1075 1024" class="icon" data-testid="base-icon-svg" style="display: inline-flex;"><path xmlns="http://www.w3.org/2000/svg" d="M554.051 0c28.037 0 50.76 22.725 50.76 50.757v46.124c0 28.033-22.723 50.757-50.76 50.757-28.032 0-50.755-22.725-50.755-50.757V50.757C503.296 22.725 526.019 0 554.051 0zm0 286.011c-124.808 0-225.986 101.179-225.986 225.989s101.178 225.987 225.986 225.987c124.81 0 225.992-101.176 225.992-225.987S678.862 286.011 554.051 286.011zM226.55 512c0-180.875 146.628-327.503 327.501-327.503 180.879 0 327.506 146.628 327.506 327.503S734.93 839.501 554.051 839.501C373.178 839.501 226.55 692.874 226.55 512zm770.263-256.356c14.213 24.162 6.149 55.271-18.012 69.485l-39.209 23.062c-24.161 14.213-55.27 6.148-69.484-18.015s-6.149-55.271 18.017-69.484l39.204-23.062c24.161-14.213 55.27-6.148 69.484 18.014zm-885.485 0c14.213-24.162 45.322-32.227 69.485-18.014l39.206 23.062c24.162 14.213 32.227 45.322 18.014 69.484s-45.322 32.228-69.485 18.015l-39.205-23.062c-24.162-14.213-32.227-45.322-18.015-69.485zm126.705 438.183c14.213 24.161 6.148 55.27-18.014 69.484l-39.206 23.06c-24.162 14.213-55.271 6.149-69.485-18.012-14.213-24.166-6.148-55.276 18.015-69.489l39.205-23.06c24.162-14.213 55.271-6.149 69.485 18.017zm632.075 0c14.213-24.166 45.322-32.23 69.484-18.017l39.209 23.06c24.161 14.213 32.225 45.322 18.012 69.489-14.213 24.161-45.322 32.225-69.484 18.012l-39.204-23.06c-24.166-14.213-32.23-45.322-18.017-69.484zM554.051 876.36c28.037 0 50.76 22.728 50.76 50.76v46.121c0 28.037-22.723 50.76-50.76 50.76-28.032 0-50.755-22.723-50.755-50.76V927.12c0-28.032 22.723-50.76 50.755-50.76z"></path></svg>