<svg fill="currentColor" xmlns="http://www.w3.org/2000/svg" viewBox="0 0 1075 1024" class="icon" data-testid="base-icon-svg" style="display: inline-flex;"><path xmlns="http://www.w3.org/2000/svg" d="M554.051 405.234c-60.568 0-109.67 49.101-109.67 109.669 0 60.57 49.102 109.67 109.67 109.67 60.57 0 109.67-49.101 109.67-109.67s-49.101-109.669-109.67-109.669zM339.953 514.903c0-118.242 95.856-214.097 214.098-214.097 118.246 0 214.103 95.855 214.103 214.097 0 118.246-95.857 214.103-214.103 214.103-118.242 0-214.098-95.857-214.098-214.103zM554.056 0c28.836 0 52.214 23.377 52.214 52.214v91.144c164.439 22.903 294.764 152.397 318.915 316.435h88.663c28.841 0 52.214 23.377 52.214 52.212 0 28.841-23.373 52.214-52.214 52.214h-87.854C904.096 731.003 772.65 863.294 606.27 886.467v85.32c0 28.836-23.378 52.214-52.214 52.214s-52.214-23.378-52.214-52.214v-85.315c-166.39-23.163-297.851-155.459-319.749-322.253H94.277c-28.837 0-52.214-23.373-52.214-52.214 0-28.835 23.377-52.212 52.214-52.212h88.626c24.154-164.046 154.487-293.545 318.939-316.439v-91.14C501.842 23.377 525.22 0 554.056 0zm-.011 244.18c-149.524 0-270.736 121.211-270.736 270.733 0 149.524 121.211 270.735 270.736 270.735 149.519 0 270.73-121.211 270.73-270.735 0-149.522-121.211-270.733-270.73-270.733z"></path></svg>