<svg fill="currentColor" xmlns="http://www.w3.org/2000/svg" viewBox="0 0 1075 1024" class="icon" data-testid="base-icon-svg" style="display: inline-flex;"><path xmlns="http://www.w3.org/2000/svg" d="M503.991 213.9c0-28.854 23.389-52.244 52.246-52.244h457.58c28.856 0 52.244 23.391 52.244 52.244s-23.388 52.244-52.244 52.244h-457.58c-28.856 0-52.246-23.39-52.246-52.244zm-.004 298.11c0-28.856 23.389-52.247 52.245-52.247h457.585c28.851 0 52.239 23.391 52.239 52.247 0 28.851-23.388 52.244-52.239 52.244H556.232c-28.856 0-52.245-23.393-52.245-52.244zm0 298.102c0-28.856 23.389-52.244 52.245-52.244h457.585c28.851 0 52.239 23.388 52.239 52.244 0 28.851-23.388 52.244-52.239 52.244H556.232c-28.856 0-52.245-23.393-52.245-52.244zM258.943 109.25a52.24 52.24 0 0 1 37.488 15.849l167.147 172.134c20.101 20.7 19.614 53.776-1.086 73.876s-53.776 19.614-73.876-1.086l-76.174-78.447V734.96l76.17-78.479c20.095-20.705 53.171-21.197 73.876-1.101s21.199 53.171 1.103 73.876L298.948 898.892c-9.838 10.132-23.359 15.857-37.484 15.857s-27.647-5.714-37.487-15.852L56.83 726.763c-20.101-20.7-19.614-53.775 1.086-73.876 20.7-20.096 53.776-19.61 73.876 1.091l76.161 78.433v-443.36l-76.156 78.466c-20.095 20.705-53.171 21.199-73.876 1.104s-21.199-53.171-1.103-73.876l164.643-169.636a52.243 52.243 0 0 1 37.484-15.858z" style=""></path></svg>