<svg fill="currentColor" xmlns="http://www.w3.org/2000/svg" viewBox="0 0 1075 1024" class="icon" data-testid="base-icon-svg" style="display: inline-flex;"><path xmlns="http://www.w3.org/2000/svg" d="M94.166 398.578c28.775 0 52.103 23.328 52.103 52.104v122.64c0 28.774-23.328 52.101-52.103 52.101s-52.104-23.327-52.104-52.101v-122.64c0-28.776 23.328-52.104 52.104-52.104zm551.876-61.314c28.78 0 52.106 23.328 52.106 52.104v245.277c0 28.78-23.327 52.106-52.106 52.106-28.774 0-52.101-23.327-52.101-52.106V389.368c0-28.776 23.327-52.104 52.101-52.104zm367.918 0c-28.774 0-52.106 23.328-52.106 52.104v275.94c0 28.774 23.332 52.101 52.106 52.101s52.101-23.327 52.101-52.101v-275.94c0-28.776-23.327-52.104-52.101-52.104zM829.998 214.626c28.774 0 52.101 23.328 52.101 52.103v490.555c0 28.78-23.327 52.106-52.101 52.106-28.78 0-52.106-23.327-52.106-52.106V266.729c0-28.775 23.327-52.103 52.106-52.103zM462.081 91.987c28.776 0 52.105 23.327 52.105 52.103v735.833c0 28.78-23.329 52.106-52.105 52.106s-52.103-23.327-52.103-52.106V144.09c0-28.776 23.327-52.103 52.103-52.103zM278.129 214.626c28.776 0 52.103 23.328 52.103 52.103v490.555c0 28.78-23.327 52.106-52.103 52.106s-52.103-23.327-52.103-52.106V266.729c0-28.775 23.327-52.103 52.103-52.103z"></path></svg>