<svg fill="currentColor" xmlns="http://www.w3.org/2000/svg" viewBox="0 0 1075 1024" class="icon" data-testid="base-icon-svg" style="display: inline-flex;"><path xmlns="http://www.w3.org/2000/svg" d="M42.062 52.449C42.062 23.482 65.544 0 94.511 0h919.1c28.969 0 52.449 23.482 52.449 52.449s-23.48 52.449-52.449 52.449h-919.1c-28.967 0-52.449-23.482-52.449-52.449zM348.43 358.816c0-28.967 23.482-52.449 52.449-52.449h612.733c28.969 0 52.449 23.482 52.449 52.449s-23.48 52.449-52.449 52.449H400.879c-28.966 0-52.449-23.482-52.449-52.449zM42.062 665.185c0-28.969 23.482-52.449 52.449-52.449h919.1c28.969 0 52.449 23.48 52.449 52.449 0 28.964-23.48 52.449-52.449 52.449h-919.1c-28.967 0-52.449-23.485-52.449-52.449zM348.43 971.551c0-28.964 23.482-52.449 52.449-52.449h612.733c28.969 0 52.449 23.485 52.449 52.449 0 28.969-23.48 52.449-52.449 52.449H400.879c-28.966 0-52.449-23.48-52.449-52.449z"></path></svg>