<svg fill="currentColor" xmlns="http://www.w3.org/2000/svg" viewBox="0 0 1075 1024" class="icon" data-testid="base-icon-svg" style="display: inline-flex;"><path xmlns="http://www.w3.org/2000/svg" d="M843.028 849.096c-284.657-62.444-497.701-316.083-497.701-619.483 0-24.263 1.367-48.234 4.033-71.835-100.749 77.775-165.516 199.713-165.516 336.63 0 234.705 190.266 424.975 424.97 424.975 86.548 0 167.03-25.82 234.214-70.287zm136.51-89.892c37.32 0 64.051 39.956 40.515 68.925C922.952 947.64 774.805 1024 608.815 1024c-292.483 0-529.589-237.107-529.589-529.592 0-222.018 136.619-412.127 330.375-490.844 41.294-16.777 76.268 28.796 63.273 71.432-14.908 48.912-22.927 100.828-22.927 154.617 0 292.484 237.107 529.591 529.592 529.591z"></path></svg>